<?xml version="1.0" encoding="UTF-8" standalone="no"?>
<svg
   xmlns:dc="http://purl.org/dc/elements/1.1/"
   xmlns:cc="http://creativecommons.org/ns#"
   xmlns:rdf="http://www.w3.org/1999/02/22-rdf-syntax-ns#"
   xmlns:svg="http://www.w3.org/2000/svg"
   xmlns="http://www.w3.org/2000/svg"
   xmlns:sodipodi="http://sodipodi.sourceforge.net/DTD/sodipodi-0.dtd"
   xmlns:inkscape="http://www.inkscape.org/namespaces/inkscape"
   id="svg767"
   version="1.1"
   viewBox="0 0 33.866666 33.866667"
   height="128"
   width="128"
   sodipodi:docname="reductech-scl-file.svg"
   inkscape:export-filename="C:\Users\AntonyOnipko\Reductech Ltd\Reductech - Documents\General\Marketing\Logos\Reductech\reductech-logo_128px.png"
   inkscape:export-xdpi="96"
   inkscape:export-ydpi="96"
   inkscape:version="1.0beta1 (fe3e306, 2019-09-17)">
  <sodipodi:namedview
     pagecolor="#ffffff"
     bordercolor="#666666"
     inkscape:document-rotation="0"
     borderopacity="1"
     objecttolerance="10"
     gridtolerance="10"
     guidetolerance="10"
     inkscape:pageopacity="0"
     inkscape:pageshadow="2"
     inkscape:window-width="3716"
     inkscape:window-height="2120"
     id="namedview881"
     showgrid="false"
     lock-margins="true"
     fit-margin-top="0"
     fit-margin-left="0"
     fit-margin-right="0"
     fit-margin-bottom="0"
     units="px"
     inkscape:zoom="7.9195959"
     inkscape:cx="24.410187"
     inkscape:cy="58.225682"
     inkscape:window-x="5488"
     inkscape:window-y="330"
     inkscape:window-maximized="1"
     inkscape:current-layer="svg767" />
  <defs
     id="defs761" />
  <metadata
     id="metadata764">
    <rdf:RDF>
      <cc:Work
         rdf:about="">
        <dc:format>image/svg+xml</dc:format>
        <dc:type
           rdf:resource="http://purl.org/dc/dcmitype/StillImage" />
        <dc:title></dc:title>
      </cc:Work>
    </rdf:RDF>
  </metadata>
  <g
     transform="matrix(0.10459365,0,0,-0.10459365,27.944801,10.78348)"
     id="g370"
     style="opacity:1;stop-opacity:1;fill:#a9cab9;fill-opacity:1">
    <path
       id="path372"
       style="fill:#a9cab9;fill-opacity:1;fill-rule:nonzero;stroke:none"
       d="m 0,0 c 1.617,-3.224 2.624,-6.652 2.624,-9.616 v -98.163 c 0,-6.919 -5.454,-16.367 -11.445,-19.823 l -85.012,-49.082 c -2.996,-1.73 -7.221,-2.595 -11.445,-2.595 v -18.614 c 7.41,0 14.824,1.706 20.734,5.118 l 85.011,49.082 c 11.627,6.71 20.736,22.485 20.736,35.914 v 98.163 c 0,6.078 -1.88,12.632 -5.002,18.614 z"
       inkscape:connector-curvature="0" />
  </g>
  <g
     transform="matrix(0.10459365,0,0,-0.10459365,15.736202,29.263493)"
     id="g374"
     style="opacity:1;stop-opacity:1;fill:#a9cab9;fill-opacity:1">
    <path
       id="path376"
       style="fill:#a9cab9;fill-opacity:1;fill-rule:nonzero;stroke:none"
       d="m 0,0 -85.013,49.082 c -5.99,3.456 -11.444,12.906 -11.444,19.823 v 98.163 c 0,2.964 1.007,6.392 2.624,9.616 l -16.201,8.998 c -3.122,-5.982 -5.002,-12.536 -5.002,-18.614 V 68.905 c 0,-13.429 9.108,-29.204 20.735,-35.914 l 85.012,-49.082 c 5.911,-3.412 13.321,-5.118 20.734,-5.118 v 0 l 10e-4,18.614 C 7.221,-2.595 2.995,-1.73 0,0"
       inkscape:connector-curvature="0" />
  </g>
  <g
     transform="matrix(0.10459365,0,0,-0.10459365,24.19151,15.215719)"
     id="g378"
     style="opacity:1;stop-opacity:1;fill:#a9cab9;fill-opacity:1">
    <path
       id="path380"
       style="fill:#a9cab9;fill-opacity:1;fill-rule:nonzero;stroke:none"
       d="M 0,0 V -32.645 C 0,-45.293 -9.607,-61.934 -20.561,-68.258 L -48.832,-84.58 c -5.476,-3.165 -13.019,-4.747 -20.562,-4.747 v -18.591 c 10.739,0 21.483,2.415 29.851,7.247 l 28.272,16.322 c 16.737,9.665 29.85,32.376 29.85,51.704 V 0 c 0,9.267 -3.036,19.299 -8.019,28.311 L -5.688,19.286 C -2.206,12.983 0,6.04 0,0"
       inkscape:connector-curvature="0" />
  </g>
  <g
     transform="matrix(0.10459365,0,0,-0.10459365,14.782663,24.062218)"
     id="g382"
     style="opacity:1;stop-opacity:1;fill:#a9cab9;fill-opacity:1">
    <path
       id="path384"
       style="fill:#a9cab9;fill-opacity:1;fill-rule:nonzero;stroke:none"
       d="m 0,0 -28.27,16.322 c -10.954,6.323 -20.562,22.965 -20.562,35.612 V 84.58 c 0,6.039 2.206,12.983 5.688,19.286 l -16.248,9.024 c -4.983,-9.011 -8.019,-19.044 -8.019,-28.31 V 51.934 C -67.411,32.607 -54.3,9.897 -37.56,0.23 l 28.271,-16.321 c 8.369,-4.833 19.109,-7.248 29.851,-7.248 v 0 18.591 C 13.02,-4.748 5.477,-3.165 0,0"
       inkscape:connector-curvature="0" />
  </g>
  <g
     transform="matrix(0.09181342,0,0,-0.09181342,21.960848,17.0345)"
     id="g386"
     style="opacity:1;fill:#a9cab9;fill-opacity:1;stop-opacity:1">
    <path
       id="path388"
       style="fill:#a9cab9;fill-opacity:1;fill-rule:nonzero;stroke:none"
       d="M 0,0 C 0,8.257 -2.178,15.996 -5.956,22.715 L -46.447,0.226 V -46.447 C -20.795,-46.447 0,-25.652 0,0"
       inkscape:connector-curvature="0" />
  </g>
  <g
     transform="matrix(0.09181342,0,0,-0.09181342,12.455001,14.948958)"
     id="g390"
     style="opacity:1;fill:#a9cab9;fill-opacity:1;stop-opacity:1">
    <path
       id="path392"
       style="fill:#a9cab9;fill-opacity:1;fill-rule:nonzero;stroke:none"
       d="m 0,0 c -3.778,-6.719 -5.956,-14.458 -5.956,-22.715 0,-25.652 20.796,-46.447 46.448,-46.447 v 46.673 z"
       inkscape:connector-curvature="0" />
  </g>
  <g
     transform="matrix(0.10459365,0,0,-0.10459365,27.993834,8.0540202)"
     id="g394"
     style="opacity:1;stop-opacity:1;fill:#a9cab9;fill-opacity:1">
    <path
       id="path396"
       style="fill:#a9cab9;fill-opacity:1;fill-rule:nonzero;stroke:none"
       d="m 0,0 -24.242,13.996 -60.771,35.086 c -5.91,3.414 -13.322,5.12 -20.734,5.12 -7.413,0 -14.825,-1.706 -20.735,-5.12 l -60.772,-35.086 -24.24,-13.995 c -6.363,-3.673 -11.959,-10.067 -15.733,-17.299 l 16.201,-8.998 c 2.155,4.298 5.399,8.231 8.821,10.207 l 52.109,30.085 32.903,18.997 c 2.996,1.729 7.22,2.593 11.445,2.593 h 0.001 c 4.225,0 8.449,-0.864 11.445,-2.593 l 32.903,-18.997 52.11,-30.086 c 3.422,-1.976 6.665,-5.909 8.82,-10.206 l 16.201,8.998 C 11.958,-10.067 6.362,-3.673 0,0"
       inkscape:connector-curvature="0" />
  </g>
  <g
     transform="matrix(0.10459365,0,0,-0.10459365,23.012593,9.8183867)"
     id="g398"
     style="opacity:1;stop-opacity:1;fill:#a9cab9;fill-opacity:1">
    <path
       id="path400"
       style="fill:#a9cab9;fill-opacity:1;fill-rule:nonzero;stroke:none"
       d="m 0,0 -28.271,16.323 c -8.37,4.832 -19.111,7.248 -29.852,7.248 -10.74,0 -21.481,-2.416 -29.851,-7.248 L -116.245,0 c -8.713,-5.031 -16.422,-13.608 -21.832,-23.392 l 16.249,-9.025 c 3.81,6.896 9.15,13.024 14.873,16.328 l 28.27,16.323 c 5.478,3.162 13.019,4.742 20.562,4.742 v 0 c 7.541,0 15.085,-1.582 20.562,-4.742 l 28.272,-16.323 c 5.723,-3.304 11.063,-9.432 14.872,-16.328 l 16.249,9.025 C 16.422,-13.608 8.713,-5.03 0,0"
       inkscape:connector-curvature="0" />
  </g>
  <g
     transform="matrix(0.09158896,0,0,-0.09158896,16.933333,11.613001)"
     id="g402"
     style="opacity:1;fill:#a9cab9;fill-opacity:1;stop-opacity:1">
    <path
       id="path404"
       style="fill:#a9cab9;fill-opacity:1;fill-rule:nonzero;stroke:none"
       d="M 0,0 C -17.395,0 -32.533,-9.577 -40.492,-23.732 L 0,-46.221 40.492,-23.732 C 32.533,-9.577 17.395,0 0,0"
       inkscape:connector-curvature="0" />
  </g>
</svg>
